<?xml version="1.0" encoding="iso-8859-1"?>
<!-- Generator: Adobe Illustrator 19.0.0, SVG Export Plug-In . SVG Version: 6.00 Build 0)  -->
<svg version="1.1" id="Layer_1" xmlns="http://www.w3.org/2000/svg" xmlns:xlink="http://www.w3.org/1999/xlink" x="0px" y="0px"
	 viewBox="0 0 512 512" style="enable-background:new 0 0 512 512;" xml:space="preserve">
<g>
	<g>
		<path d="M486.54,78.704L410.554,2.975C408.64,1.07,406.052,0,403.353,0H32.661c-5.632,0-10.199,4.566-10.199,10.199v491.602
			c0,5.633,4.567,10.199,10.199,10.199h446.678c5.632,0,10.199-4.566,10.199-10.199V85.928
			C489.538,83.217,488.458,80.618,486.54,78.704z M286.458,20.398h31.222v90.244h-31.222V20.398z M157.947,20.398H266.06v100.443
			c0,5.633,4.567,10.199,10.199,10.199h51.62c5.632,0,10.199-4.566,10.199-10.199V20.398h15.974v125.156H157.947V20.398z
			 M407.593,491.602H104.407V294.822h303.186V491.602z M407.593,274.424L407.593,274.424H104.407v-28.377h303.186V274.424z
			 M469.139,491.602H427.99V235.848h0.001c0-5.633-4.567-10.199-10.199-10.199H94.208c-5.632,0-10.199,4.566-10.199,10.199v255.753
			H42.86V20.398h94.688v135.356c0,5.633,4.567,10.199,10.199,10.199h216.504c5.632,0,10.199-4.566,10.199-10.199V20.398h24.687
			l70.001,69.765V491.602z"/>
	</g>
</g>
<g>
	<g>
		<path d="M321.719,325.767h-6.161c-5.632,0-10.199,4.566-10.199,10.199c0,5.633,4.567,10.199,10.199,10.199h6.161
			c5.632,0,10.199-4.566,10.199-10.199C331.918,330.333,327.351,325.767,321.719,325.767z"/>
	</g>
</g>
<g>
	<g>
		<path d="M271.403,325.767H143.047c-5.632,0-10.199,4.566-10.199,10.199c0,5.633,4.566,10.199,10.199,10.199h128.356
			c5.632,0,10.199-4.566,10.199-10.199C281.602,330.333,277.035,325.767,271.403,325.767z"/>
	</g>
</g>
<g>
	<g>
		<path d="M321.719,375.054H143.047c-5.632,0-10.199,4.566-10.199,10.199c0,5.633,4.567,10.199,10.199,10.199h178.672
			c5.632,0,10.199-4.566,10.199-10.199C331.918,379.62,327.351,375.054,321.719,375.054z"/>
	</g>
</g>
<g>
</g>
<g>
</g>
<g>
</g>
<g>
</g>
<g>
</g>
<g>
</g>
<g>
</g>
<g>
</g>
<g>
</g>
<g>
</g>
<g>
</g>
<g>
</g>
<g>
</g>
<g>
</g>
<g>
</g>
</svg>
